<svg xmlns="http://www.w3.org/2000/svg" width="1200" height="1600" viewBox="0 0 1200 1600">
  <defs>
    <linearGradient id="bg" x1="0" y1="0" x2="1" y2="1">
      <stop offset="0" stop-color="#f6f2e9"/>
      <stop offset="0.58" stop-color="#eef4f2"/>
      <stop offset="1" stop-color="#e8edf7"/>
    </linearGradient>
    <filter id="shadow" x="-20%" y="-20%" width="140%" height="140%">
      <feDropShadow dx="0" dy="28" stdDeviation="32" flood-color="#2b3038" flood-opacity="0.18"/>
    </filter>
  </defs>
  <rect width="1200" height="1600" fill="url(#bg)"/>
  <circle cx="1000" cy="240" r="150" fill="#ffffff" opacity="0.62"/>
  <circle cx="162" cy="1330" r="210" fill="#ffffff" opacity="0.52"/>
  <g filter="url(#shadow)">
    <rect x="190" y="760" width="820" height="500" rx="34" fill="#d7dce2"/>
    <rect x="230" y="800" width="740" height="420" rx="24" fill="#191b20"/>
    <rect x="268" y="840" width="664" height="338" rx="16" fill="#f8faf7"/>
    <rect x="330" y="1245" width="540" height="28" rx="14" fill="#a6adb6"/>
  </g>
  <rect x="292" y="878" width="230" height="18" rx="9" fill="#111827" opacity="0.75"/>
  <rect x="292" y="920" width="570" height="14" rx="7" fill="#111827" opacity="0.17"/>
  <rect x="292" y="952" width="510" height="14" rx="7" fill="#111827" opacity="0.12"/>
  <rect x="292" y="1012" width="278" height="72" rx="18" fill="#ffffff" stroke="#dbe3e0" stroke-width="2"/>
  <rect x="598" y="1012" width="264" height="72" rx="18" fill="#ffffff" stroke="#dbe3e0" stroke-width="2"/>
  <text x="330" y="1059" font-family="PingFang SC, Helvetica, Arial, sans-serif" font-size="28" fill="#27303a">AI Agent</text>
  <text x="636" y="1059" font-family="PingFang SC, Helvetica, Arial, sans-serif" font-size="28" fill="#27303a">写作 / 开发</text>
  <text x="90" y="160" font-family="PingFang SC, Helvetica, Arial, sans-serif" font-size="34" fill="#4b5563">不是替苹果辩护</text>
  <text x="90" y="214" font-family="PingFang SC, Helvetica, Arial, sans-serif" font-size="34" fill="#4b5563">而是重新计算一台工具的价值</text>
  <text x="88" y="380" font-family="PingFang SC, Helvetica, Arial, sans-serif" font-size="84" font-weight="800" fill="#111827">苹果涨价之后</text>
  <text x="88" y="488" font-family="PingFang SC, Helvetica, Arial, sans-serif" font-size="84" font-weight="800" fill="#111827">我反而更确定</text>
  <text x="88" y="596" font-family="PingFang SC, Helvetica, Arial, sans-serif" font-size="84" font-weight="800" fill="#111827">MacBook 是值得的</text>
  <rect x="90" y="660" width="490" height="58" rx="29" fill="#111827"/>
  <text x="126" y="699" font-family="PingFang SC, Helvetica, Arial, sans-serif" font-size="28" fill="#ffffff">一台电脑真正买的是注意力</text>
  <text x="92" y="1458" font-family="PingFang SC, Helvetica, Arial, sans-serif" font-size="30" fill="#4b5563">Skyler Yang / AI 产品手记</text>
</svg>
