<svg xmlns="http://www.w3.org/2000/svg" width="1200" height="1600" viewBox="0 0 1200 1600">
  <rect width="1200" height="1600" fill="#eef3f5"/>
  <text x="86" y="150" font-family="PingFang SC, Helvetica, Arial, sans-serif" font-size="44" fill="#4b5563">AI 时代</text>
  <text x="86" y="252" font-family="PingFang SC, Helvetica, Arial, sans-serif" font-size="82" font-weight="800" fill="#111827">MacBook 不只是电脑</text>
  <text x="86" y="356" font-family="PingFang SC, Helvetica, Arial, sans-serif" font-size="82" font-weight="800" fill="#111827">而是个人生产力中枢</text>
  <g font-family="PingFang SC, Helvetica, Arial, sans-serif">
    <rect x="94" y="500" width="1012" height="780" rx="42" fill="#ffffff"/>
    <rect x="430" y="780" width="340" height="170" rx="34" fill="#111827"/>
    <text x="505" y="848" font-size="36" font-weight="800" fill="#ffffff">MacBook</text>
    <text x="485" y="902" font-size="28" fill="#cbd5e1">工作流中心</text>
    <rect x="150" y="590" width="270" height="126" rx="28" fill="#eaf0ff"/>
    <text x="205" y="668" font-size="34" font-weight="700" fill="#1f2937">写代码</text>
    <rect x="780" y="590" width="270" height="126" rx="28" fill="#eff9f0"/>
    <text x="835" y="668" font-size="34" font-weight="700" fill="#1f2937">AI Agent</text>
    <rect x="150" y="1018" width="270" height="126" rx="28" fill="#fff3e8"/>
    <text x="205" y="1096" font-size="34" font-weight="700" fill="#1f2937">内容创作</text>
    <rect x="780" y="1018" width="270" height="126" rx="28" fill="#f3ecff"/>
    <text x="835" y="1096" font-size="34" font-weight="700" fill="#1f2937">知识管理</text>
    <path d="M420 653 C500 690 540 735 566 780" stroke="#94a3b8" stroke-width="8" fill="none" stroke-linecap="round"/>
    <path d="M780 653 C700 690 660 735 634 780" stroke="#94a3b8" stroke-width="8" fill="none" stroke-linecap="round"/>
    <path d="M420 1081 C500 1040 540 995 566 950" stroke="#94a3b8" stroke-width="8" fill="none" stroke-linecap="round"/>
    <path d="M780 1081 C700 1040 660 995 634 950" stroke="#94a3b8" stroke-width="8" fill="none" stroke-linecap="round"/>
  </g>
  <text x="92" y="1420" font-family="PingFang SC, Helvetica, Arial, sans-serif" font-size="38" font-weight="800" fill="#111827">价值不是参数第一</text>
  <text x="92" y="1485" font-family="PingFang SC, Helvetica, Arial, sans-serif" font-size="38" font-weight="800" fill="#111827">而是把想法、工具、执行和输出连起来</text>
</svg>
