<svg xmlns="http://www.w3.org/2000/svg" width="1200" height="675" viewBox="0 0 1200 675">
  <rect width="1200" height="675" fill="#0b0f14"/>
  <rect x="54" y="48" width="1092" height="579" rx="28" fill="#f7f8fa"/>
  <rect x="92" y="88" width="1016" height="499" rx="18" fill="#ffffff" stroke="#d5dde8" stroke-width="2"/>
  <text x="132" y="160" font-family="Inter, Arial, sans-serif" font-size="28" font-weight="700" fill="#1a2230">AI is not magic.</text>
  <text x="132" y="204" font-family="Inter, Arial, sans-serif" font-size="28" font-weight="700" fill="#1a2230">It needs a workflow.</text>
  <g transform="translate(120 230)">
    <rect x="0" y="0" width="230" height="58" rx="12" fill="#e9edf3"/>
    <text x="24" y="37" font-family="Inter, Arial, sans-serif" font-size="22" fill="#2b3445">知识库</text>
    <rect x="0" y="86" width="230" height="58" rx="12" fill="#e9edf3"/>
    <text x="24" y="123" font-family="Inter, Arial, sans-serif" font-size="22" fill="#2b3445">工具权限</text>
    <rect x="0" y="172" width="230" height="58" rx="12" fill="#e9edf3"/>
    <text x="24" y="209" font-family="Inter, Arial, sans-serif" font-size="22" fill="#2b3445">反馈机制</text>
  </g>
  <g transform="translate(490 178)">
    <circle cx="110" cy="110" r="80" fill="#111827"/>
    <circle cx="110" cy="110" r="42" fill="#4f8df7"/>
    <path d="M110 8v55M110 157v55M8 110h55M157 110h55" stroke="#111827" stroke-width="12" stroke-linecap="round"/>
    <text x="67" y="119" font-family="Inter, Arial, sans-serif" font-size="28" font-weight="700" fill="#ffffff">AI</text>
    <path d="M-42 260 C52 188 163 188 260 260" fill="none" stroke="#9aa8bb" stroke-width="4"/>
    <path d="M260 260 l-16 -34M260 260 l-36 5" fill="none" stroke="#9aa8bb" stroke-width="4" stroke-linecap="round"/>
  </g>
  <g transform="translate(808 230)">
    <rect x="0" y="0" width="260" height="58" rx="12" fill="#dceafe"/>
    <text x="24" y="37" font-family="Inter, Arial, sans-serif" font-size="22" fill="#1f4690">任务闭环</text>
    <rect x="0" y="86" width="260" height="58" rx="12" fill="#dceafe"/>
    <text x="24" y="123" font-family="Inter, Arial, sans-serif" font-size="22" fill="#1f4690">自动验证</text>
    <rect x="0" y="172" width="260" height="58" rx="12" fill="#dceafe"/>
    <text x="24" y="209" font-family="Inter, Arial, sans-serif" font-size="22" fill="#1f4690">可交付结果</text>
  </g>
  <text x="132" y="528" font-family="Inter, Arial, sans-serif" font-size="58" font-weight="800" fill="#111827">把 AI 培养成数字员工</text>
  <text x="132" y="570" font-family="Inter, Arial, sans-serif" font-size="24" fill="#4b5563">从一次性提问，到可复用的组织工作流</text>
</svg>
